<?xml version="1.0" encoding="utf-8"?>
<!-- Generator: Adobe Illustrator 21.1.0, SVG Export Plug-In . SVG Version: 6.00 Build 0)  -->
<svg version="1.1" id="Livello_1" xmlns="http://www.w3.org/2000/svg" xmlns:xlink="http://www.w3.org/1999/xlink" x="0px" y="0px"
	 viewBox="0 0 708.66 538.58" style="enable-background:new 0 0 708.66 538.58;" xml:space="preserve">
<style type="text/css">
	.st0{fill-rule:evenodd;clip-rule:evenodd;fill:none;stroke:#14100E;stroke-width:1.75;stroke-miterlimit:10;}
	.st1{fill-rule:evenodd;clip-rule:evenodd;fill:#FFFFFF;}
	.st2{fill-rule:evenodd;clip-rule:evenodd;fill:#8E9391;stroke:#FFFFFF;stroke-width:2;stroke-miterlimit:10;}
	.st3{fill-rule:evenodd;clip-rule:evenodd;fill:#646E6B;}
	.st4{fill-rule:evenodd;clip-rule:evenodd;fill:#BDBCBB;stroke:#FFFFFF;stroke-width:2;stroke-miterlimit:10;}
	.st5{fill-rule:evenodd;clip-rule:evenodd;fill:#DBDDDC;stroke:#FFFFFF;stroke-width:2;stroke-miterlimit:10;}
	.st6{fill-rule:evenodd;clip-rule:evenodd;fill:none;}
	.st7{fill:#020202;stroke:#1D1D1B;stroke-width:3;stroke-miterlimit:10;}
	.st8{fill-rule:evenodd;clip-rule:evenodd;fill:url(#SVGID_1_);stroke:#FFFFFF;stroke-width:4;stroke-miterlimit:10;}
	.st9{fill-rule:evenodd;clip-rule:evenodd;fill:url(#SVGID_2_);stroke:#FFFFFF;stroke-width:4;stroke-miterlimit:10;}
	.st10{fill-rule:evenodd;clip-rule:evenodd;fill:url(#SVGID_3_);stroke:#FFFFFF;stroke-width:4;stroke-miterlimit:10;}
	.st11{fill:url(#SVGID_4_);stroke:#FFFFFF;stroke-width:4;stroke-miterlimit:10;}
	.st12{fill:url(#SVGID_5_);stroke:#FFFFFF;stroke-width:4;stroke-miterlimit:10;}
	.st13{fill:url(#SVGID_6_);stroke:#FFFFFF;stroke-width:4;stroke-miterlimit:10;}
</style>
<g>
	<circle class="st0" cx="351.48" cy="164.39" r="141.35"/>
	<rect x="299.51" y="225.36" class="st1" width="108.72" height="108.72"/>
	<g>
		<polygon class="st2" points="604.86,265.38 627.29,302.57 352.52,402.77 356.09,399.17 		"/>
		<polygon class="st3" points="635.75,235.77 533.43,67.39 363.09,177.7 352,388.4 352.09,401.36 		"/>
		<polygon class="st4" points="604.86,325.58 627.29,368.11 352.52,402.77 356.09,400.02 		"/>
		<polygon class="st5" points="619.85,384.06 627.29,392.44 352.52,402.77 356.09,400.33 		"/>
		<polygon class="st2" points="99.17,265.38 76.73,302.57 351.48,402.77 347.93,399.17 		"/>
		<polygon class="st3" points="68.26,235.77 170.59,67.39 340.92,177.7 352,388.4 351.94,401.36 		"/>
		<polygon class="st4" points="99.17,325.58 76.73,368.11 351.48,402.77 347.93,400.02 		"/>
		<polygon class="st5" points="83.12,385.9 76.73,392.44 351.48,402.77 347.93,400.33 		"/>
	</g>
	<g>
		<rect x="-56.32" y="417.18" class="st6" width="821.3" height="126.5"/>
		<path class="st7" d="M167.15,450.33v-3.68h3.68v3.68c0,4.08,1.44,7.55,4.31,10.42c2.87,2.87,6.35,4.31,10.43,4.31
			c4.08,0,7.55-1.44,10.42-4.31c2.87-2.87,4.31-6.35,4.31-10.42c0-4.08-1.44-7.55-4.31-10.42c-2.87-2.87-6.35-4.31-10.42-4.31h-1.84
			c-2.55,0-4.73-0.9-6.52-2.69c-1.79-1.79-2.69-3.97-2.69-6.52c0-2.55,0.9-4.73,2.69-6.52c1.79-1.79,3.97-2.69,6.52-2.69h9.21v3.68
			h-9.21c-1.52,0-2.82,0.54-3.9,1.62s-1.62,2.38-1.62,3.9c0,1.52,0.54,2.82,1.62,3.91s2.38,1.62,3.9,1.62h1.84
			c5.08,0,9.42,1.8,13.02,5.4c3.6,3.6,5.4,7.94,5.4,13.02c0,5.08-1.8,9.42-5.4,13.02c-3.6,3.6-7.94,5.4-13.02,5.4
			c-5.08,0-9.42-1.8-13.02-5.4S167.15,455.42,167.15,450.33z"/>
		<path class="st7" d="M215.37,417.18h3.68v23.94h25.79v-23.94h3.68v51.57h-3.68v-23.94h-25.79v23.94h-3.68V417.18z"/>
		<path class="st7" d="M259.9,435.6c0-5.08,1.8-9.42,5.4-13.02s7.94-5.4,13.02-5.4c5.08,0,9.42,1.8,13.02,5.4
			c3.6,3.6,5.4,7.94,5.4,13.02v33.15h-3.68v-18.42h-29.47v18.42h-3.68V435.6z M293.06,435.6c0-4.08-1.44-7.55-4.31-10.43
			c-2.87-2.87-6.35-4.31-10.42-4.31c-4.08,0-7.55,1.44-10.43,4.31c-2.87,2.87-4.31,6.35-4.31,10.43v11.05h29.47V435.6z"/>
		<path class="st7" d="M344.96,435.6c0,5.08-1.79,9.42-5.38,13c-2.78,2.78-5.99,4.48-9.65,5.12l15.03,15.03h-5.16l-14.73-14.74
			H311.8v14.74h-3.68v-51.57h18.42c5.08,0,9.42,1.8,13.02,5.4C343.16,426.17,344.96,430.52,344.96,435.6z M326.54,450.33
			c4.08,0,7.55-1.44,10.42-4.31c2.87-2.87,4.31-6.35,4.31-10.42s-1.44-7.55-4.31-10.43c-2.87-2.87-6.35-4.31-10.42-4.31H311.8v29.47
			H326.54z"/>
		<path class="st7" d="M360.02,450.33c0,4.08,1.44,7.55,4.31,10.42c2.87,2.87,6.35,4.31,10.42,4.31c4.08,0,7.55-1.44,10.42-4.31
			c2.87-2.87,4.31-6.35,4.31-10.42h3.68c0,5.08-1.8,9.42-5.4,13.02s-7.94,5.4-13.02,5.4c-5.08,0-9.42-1.8-13.02-5.4
			s-5.4-7.94-5.4-13.02V435.6c0-5.08,1.8-9.42,5.4-13.02s7.94-5.4,13.02-5.4c3.04,0,5.65,1.08,7.81,3.24
			c2.16,2.16,3.24,4.76,3.24,7.81h-3.68c0-2.04-0.72-3.78-2.16-5.21s-3.17-2.16-5.21-2.16c-4.08,0-7.55,1.44-10.42,4.31
			c-2.87,2.87-4.31,6.35-4.31,10.43v3.68h22.1v3.68h-22.1V450.33z"/>
		<path class="st7" d="M437.71,446.65v-29.47h3.68v29.47c0,5.08-1.8,9.42-5.4,13.02s-7.94,6.63-13.02,9.08
			c-5.08-2.46-9.42-5.48-13.02-9.08s-5.4-7.94-5.4-13.02v-29.47h3.68v29.47c0,4.08,1.44,7.55,4.31,10.42
			c2.87,2.87,6.35,5.42,10.42,7.63c4.08-2.21,7.55-4.75,10.42-7.63C436.27,454.2,437.71,450.73,437.71,446.65z"/>
		<path class="st7" d="M456.45,450.33c0,4.08,1.44,7.55,4.31,10.42c2.87,2.87,6.35,4.31,10.42,4.31c4.08,0,7.55-1.44,10.42-4.31
			c2.87-2.87,4.31-6.35,4.31-10.42h3.68c0,5.08-1.8,9.42-5.4,13.02s-7.94,5.4-13.02,5.4c-5.08,0-9.42-1.8-13.02-5.4
			s-5.4-7.94-5.4-13.02V435.6c0-5.08,1.8-9.42,5.4-13.02s7.94-5.4,13.02-5.4c3.04,0,5.65,1.08,7.81,3.24
			c2.16,2.16,3.24,4.76,3.24,7.81h-3.68c0-2.04-0.72-3.78-2.16-5.21s-3.17-2.16-5.21-2.16c-4.08,0-7.55,1.44-10.42,4.31
			c-2.87,2.87-4.31,6.35-4.31,10.43v3.68h22.1v3.68h-22.1V450.33z"/>
		<path class="st7" d="M504.67,450.33c0,4.08,1.44,7.55,4.31,10.42c2.87,2.87,6.35,4.31,10.42,4.31c4.08,0,7.55-1.44,10.42-4.31
			c2.87-2.87,4.31-6.35,4.31-10.42h3.68c0,5.08-1.8,9.42-5.4,13.02s-7.94,5.4-13.02,5.4c-5.08,0-9.42-1.8-13.02-5.4
			s-5.4-7.94-5.4-13.02v-33.15h3.68V450.33z"/>
	</g>
	<linearGradient id="SVGID_1_" gradientUnits="userSpaceOnUse" x1="324.3612" y1="23.9403" x2="382.4385" y2="23.9403">
		<stop  offset="0" style="stop-color:#FFFFFF"/>
		<stop  offset="0.1376" style="stop-color:#E2E2E2"/>
		<stop  offset="0.4364" style="stop-color:#999999"/>
		<stop  offset="0.8707" style="stop-color:#242424"/>
		<stop  offset="1" style="stop-color:#000000"/>
	</linearGradient>
	<circle class="st8" cx="353.4" cy="23.94" r="29.04"/>
	<linearGradient id="SVGID_2_" gradientUnits="userSpaceOnUse" x1="431.7901" y1="71.6092" x2="489.8674" y2="71.6092">
		<stop  offset="0" style="stop-color:#FFFFFF"/>
		<stop  offset="0.1376" style="stop-color:#E2E2E2"/>
		<stop  offset="0.4364" style="stop-color:#999999"/>
		<stop  offset="0.8707" style="stop-color:#242424"/>
		<stop  offset="1" style="stop-color:#000000"/>
	</linearGradient>
	<circle class="st9" cx="460.83" cy="71.61" r="29.04"/>
	<linearGradient id="SVGID_3_" gradientUnits="userSpaceOnUse" x1="261.4217" y1="96.7617" x2="232.3782" y2="46.4568">
		<stop  offset="0" style="stop-color:#FFFFFF"/>
		<stop  offset="1" style="stop-color:#000000"/>
	</linearGradient>
	<circle class="st10" cx="246.9" cy="71.61" r="29.04"/>
	
		<linearGradient id="SVGID_4_" gradientUnits="userSpaceOnUse" x1="207.4145" y1="314.0291" x2="265.4918" y2="314.0291" gradientTransform="matrix(6.123234e-17 -1 -1 -6.123234e-17 667.8923 260.3935)">
		<stop  offset="0" style="stop-color:#FFFFFF"/>
		<stop  offset="0.1376" style="stop-color:#E2E2E2"/>
		<stop  offset="0.4364" style="stop-color:#989898"/>
		<stop  offset="0.8707" style="stop-color:#242424"/>
		<stop  offset="1" style="stop-color:#010101"/>
	</linearGradient>
	<circle class="st11" cx="353.86" cy="23.94" r="29.04"/>
	
		<linearGradient id="SVGID_5_" gradientUnits="userSpaceOnUse" x1="484.4132" y1="202.4639" x2="542.4905" y2="202.4639" gradientTransform="matrix(0.866 -0.5 -0.5 -0.866 117.8615 503.674)">
		<stop  offset="0" style="stop-color:#FFFFFF"/>
		<stop  offset="0.1376" style="stop-color:#E2E2E2"/>
		<stop  offset="0.4364" style="stop-color:#989898"/>
		<stop  offset="0.8707" style="stop-color:#242424"/>
		<stop  offset="1" style="stop-color:#010101"/>
	</linearGradient>
	<circle class="st12" cx="461.29" cy="71.61" r="29.04"/>
	
		<linearGradient id="SVGID_6_" gradientUnits="userSpaceOnUse" x1="261.8849" y1="443.2383" x2="232.8414" y2="493.5432" gradientTransform="matrix(1 0 0 -1 1.525879e-05 540)">
		<stop  offset="0" style="stop-color:#FFFFFF"/>
		<stop  offset="1" style="stop-color:#010101"/>
	</linearGradient>
	<circle class="st13" cx="247.36" cy="71.61" r="29.04"/>
</g>
<g>
</g>
<g>
</g>
<g>
</g>
<g>
</g>
<g>
</g>
<g>
</g>
</svg>
