<?xml version="1.0" encoding="utf-8"?>
<!-- Generator: Adobe Illustrator 17.0.0, SVG Export Plug-In . SVG Version: 6.00 Build 0)  -->
<!DOCTYPE svg PUBLIC "-//W3C//DTD SVG 1.1//EN" "http://www.w3.org/Graphics/SVG/1.1/DTD/svg11.dtd">
<svg version="1.1" id="Livello_1" xmlns="http://www.w3.org/2000/svg" xmlns:xlink="http://www.w3.org/1999/xlink" x="0px" y="0px"
	 width="841.89px" height="595.28px" viewBox="0 0 841.89 595.28" enable-background="new 0 0 841.89 595.28" xml:space="preserve">
<path fill="none" stroke="#000000" stroke-width="3" stroke-linecap="round" stroke-linejoin="round" stroke-miterlimit="10" d="
	M211.375,92.5c-3.646,2.544-17.095,31.531-29.375,62.75c-9.11,23.161-16.616,41.613-17.292,50.25l13.074-7.618l29.704-49.187
	C203.991,122.214,212.108,91.988,211.375,92.5z"/>
<polygon fill="none" stroke="#000000" stroke-miterlimit="10" points="259.821,139.576 216.956,174.545 250.973,154.279 
	279.413,137.336 283,120.667 "/>
<polygon fill="none" stroke="#000000" stroke-miterlimit="10" points="197.279,186.267 186.162,192.89 197.279,186.267 "/>
<polygon fill="none" stroke="#000000" stroke-miterlimit="10" points="208.718,165.217 179.402,196.917 184.975,193.597 
	186.162,192.89 237.236,147.059 239.732,131.682 "/>
<polygon fill="none" stroke="#000000" stroke-miterlimit="10" points="207.486,148.696 177.782,197.882 179.402,196.917 
	208.718,165.217 210.091,163.576 215.001,157.707 217.76,131.682 "/>
<path fill="none" stroke="#000000" stroke-miterlimit="10" d="M248.857,279.278c0,37.434,18.131,96.573,33.143,139.126v-54.849
	v-75.422v-112.54C265.208,208.342,248.857,248.205,248.857,279.278z"/>
<polygon fill="none" stroke="#000000" stroke-miterlimit="10" points="182.296,344.229 172.36,333.738 218.219,421.983 232,448.5 
	232.704,422.815 218.548,400.745 "/>
<g>
	<polygon fill="none" stroke="#000000" stroke-miterlimit="10" points="250.973,154.279 216.956,174.545 250.973,154.279 	"/>
	<polygon fill="none" stroke="#000000" stroke-miterlimit="10" points="262.854,124.07 237.236,147.059 186.162,192.89 
		197.279,186.267 216.956,174.545 259.821,139.576 	"/>
	<polygon fill="none" stroke="#000000" stroke-miterlimit="10" points="218.737,388.527 200.724,363.685 182.296,344.229 
		218.548,400.745 232.704,422.815 249.5,449 249.5,430.953 233.1,408.336 	"/>
</g>
<polygon fill="none" stroke="#000000" stroke-miterlimit="10" points="249.5,415.184 233.379,398.163 218.825,382.797 
	200.724,363.685 218.737,388.527 233.1,408.336 249.5,430.953 276,467.5 277.026,444.246 "/>
<g>
	<g>
		<path d="M250.357,279.278c0.054-13.342,2.831-26.504,6.535-39.27c4.142-14.272,9.668-28.131,15.773-41.666
			c11.269-24.982,24.724-49.02,39.377-72.166c2.349-3.71,4.72-7.412,7.197-11.038c0.87-1.273-0.809-2.793-2.052-2.052
			c-19.653,11.708-39.305,23.416-58.958,35.124c-18.612,11.088-37.225,22.176-55.837,33.264c-12.79,7.619-25.58,15.239-38.37,22.858
			c-0.728,0.434-0.917,1.322-0.538,2.052c2.791,5.381,5.13,11.022,7.293,16.677c4.455,11.642,7.975,23.848,9.131,36.293
			c2.017,21.706-7.038,43.57-19.053,61.274c-0.207,0.305-0.415,0.608-0.63,0.907c-0.396,0.551-0.197,1.362,0.235,1.818
			c14.7,15.521,29.401,31.042,44.101,46.562c14.921,15.754,29.842,31.508,44.763,47.262c16.601,17.528,33.203,35.056,49.804,52.583
			c0.487,0.514,0.974,1.029,1.461,1.543c0.973,1.028,3.1-0.032,2.507-1.459c-7.456-17.966-14.193-36.255-20.622-54.608
			c-8.919-25.459-17.068-51.246-23.419-77.474C254.434,318.682,250.408,298.989,250.357,279.278c-0.005-1.934-3.005-1.935-3,0
			c0.064,24.592,5.961,49.219,12.259,72.846c7.07,26.523,15.757,52.615,25.141,78.401c4.899,13.46,9.956,26.887,15.447,40.119
			c0.836-0.486,1.671-0.973,2.507-1.459c-16.055-16.951-32.11-33.902-48.164-50.853c-14.17-14.961-28.341-29.923-42.511-44.884
			c-15.339-16.195-30.677-32.389-46.016-48.584c-1.146-1.21-2.292-2.42-3.438-3.629c0.078,0.606,0.156,1.212,0.235,1.818
			c3.667-5.103,6.734-10.701,9.52-16.319c5.531-11.157,9.639-23.184,10.696-35.644c1.075-12.677-1.818-25.662-5.518-37.709
			c-2.714-8.836-6.144-17.485-10.119-25.829c-0.428-0.898-0.861-1.795-1.32-2.678c-0.179,0.684-0.359,1.368-0.538,2.052
			c17.952-10.695,35.904-21.39,53.856-32.084c20.234-12.054,40.468-24.109,60.702-36.163c12.869-7.667,25.738-15.333,38.606-23
			c-0.684-0.684-1.368-1.368-2.052-2.052c-10.106,14.792-19.226,30.331-27.864,46.012c-14.212,25.8-27.134,52.82-35.257,81.212
			c-3.567,12.47-6.118,25.42-6.17,38.43C247.349,281.213,250.349,281.212,250.357,279.278z"/>
	</g>
</g>
<path fill="none" stroke="#000000" stroke-width="2" stroke-linejoin="round" stroke-miterlimit="10" d="M282.375,312.958
	c0,0,48.875,66.292,71.375,72.292c0,0,15.5,9.75-23.25,8.75s-48.5-7.25-48.5-7.25"/>
<g>
	<rect x="286" y="256" fill="none" width="322" height="101"/>
	<path d="M286,288.08v-3.564h3.564v3.564c0,3.945,1.391,7.307,4.17,10.087c2.781,2.78,6.143,4.17,10.088,4.17
		c3.944,0,7.307-1.391,10.088-4.17c2.779-2.78,4.17-6.143,4.17-10.087c0-3.944-1.391-7.307-4.17-10.087
		c-2.781-2.78-6.144-4.17-10.088-4.17h-1.782c-2.472,0-4.575-0.867-6.31-2.602c-1.734-1.734-2.602-3.837-2.602-6.309
		c0-2.471,0.867-4.574,2.602-6.309c1.734-1.734,3.838-2.602,6.31-2.602h8.911v3.564h-8.911c-1.474,0-2.733,0.523-3.778,1.568
		c-1.046,1.046-1.568,2.305-1.568,3.778c0,1.474,0.522,2.733,1.568,3.778c1.045,1.046,2.305,1.568,3.778,1.568h1.782
		c4.919,0,9.119,1.741,12.601,5.222c3.48,3.482,5.222,7.682,5.222,12.601s-1.741,9.12-5.222,12.601
		c-3.481,3.481-7.682,5.222-12.601,5.222s-9.119-1.74-12.601-5.222C287.74,297.2,286,292.999,286,288.08z"/>
	<path d="M325.209,256h3.564v23.169h24.951V256h3.564v49.902h-3.564v-23.169h-24.951v23.169h-3.564V256z"/>
	<path d="M360.854,273.822c0-4.919,1.74-9.119,5.222-12.601c3.481-3.48,7.682-5.222,12.601-5.222s9.119,1.741,12.601,5.222
		c3.48,3.482,5.222,7.682,5.222,12.601v32.08h-3.564V288.08h-28.516v17.822h-3.564V273.822z M392.934,273.822
		c0-3.944-1.391-7.307-4.17-10.087c-2.781-2.78-6.144-4.17-10.088-4.17c-3.945,0-7.307,1.39-10.088,4.17
		c-2.779,2.78-4.17,6.143-4.17,10.087v10.693h28.516V273.822z"/>
	<path d="M435.707,273.822c0,4.919-1.735,9.113-5.204,12.583c-2.686,2.686-5.799,4.337-9.339,4.955l14.543,14.543h-4.99
		l-14.258-14.258h-12.832v14.258h-3.564V256h17.822c4.919,0,9.119,1.741,12.601,5.222
		C433.966,264.704,435.707,268.903,435.707,273.822z M417.885,288.08c3.944,0,7.307-1.39,10.088-4.17
		c2.779-2.78,4.17-6.143,4.17-10.087c0-3.944-1.391-7.307-4.17-10.087c-2.781-2.78-6.144-4.17-10.088-4.17h-14.258v28.516H417.885z"
		/>
	<path d="M442.836,288.08c0,3.945,1.391,7.307,4.17,10.087c2.781,2.78,6.143,4.17,10.088,4.17c3.944,0,7.307-1.391,10.088-4.17
		c2.779-2.78,4.17-6.143,4.17-10.087h3.564c0,4.919-1.741,9.12-5.222,12.601c-3.481,3.481-7.682,5.222-12.601,5.222
		s-9.119-1.74-12.601-5.222c-3.481-3.481-5.222-7.682-5.222-12.601v-14.258c0-4.919,1.74-9.119,5.222-12.601
		c3.481-3.48,7.682-5.222,12.601-5.222c2.946,0,5.465,1.046,7.557,3.137c2.091,2.091,3.137,4.61,3.137,7.557h-3.564
		c0-1.972-0.695-3.653-2.085-5.044c-1.391-1.39-3.072-2.085-5.044-2.085c-3.945,0-7.307,1.39-10.088,4.17
		c-2.779,2.78-4.17,6.143-4.17,10.087v3.564h21.387v3.564h-21.387V288.08z"/>
	<path d="M510.561,284.516V256h3.564v28.516c0,4.919-1.741,9.12-5.222,12.601c-3.481,3.481-7.682,6.41-12.601,8.786
		c-4.919-2.376-9.119-5.305-12.601-8.786c-3.481-3.481-5.222-7.682-5.222-12.601V256h3.564v28.516c0,3.945,1.391,7.307,4.17,10.087
		c2.781,2.78,6.143,5.24,10.088,7.378c3.944-2.139,7.307-4.598,10.088-7.378C509.17,291.823,510.561,288.46,510.561,284.516z"/>
	<path d="M521.254,288.08c0,3.945,1.391,7.307,4.17,10.087c2.781,2.78,6.143,4.17,10.088,4.17c3.944,0,7.307-1.391,10.088-4.17
		c2.779-2.78,4.17-6.143,4.17-10.087h3.564c0,4.919-1.741,9.12-5.222,12.601c-3.481,3.481-7.682,5.222-12.601,5.222
		s-9.119-1.74-12.601-5.222c-3.481-3.481-5.222-7.682-5.222-12.601v-14.258c0-4.919,1.74-9.119,5.222-12.601
		c3.481-3.48,7.682-5.222,12.601-5.222c2.946,0,5.465,1.046,7.557,3.137c2.091,2.091,3.137,4.61,3.137,7.557h-3.564
		c0-1.972-0.695-3.653-2.085-5.044c-1.391-1.39-3.072-2.085-5.044-2.085c-3.945,0-7.307,1.39-10.088,4.17
		c-2.779,2.78-4.17,6.143-4.17,10.087v3.564h21.387v3.564h-21.387V288.08z"/>
	<path d="M560.463,288.08c0,3.945,1.391,7.307,4.17,10.087c2.781,2.78,6.143,4.17,10.088,4.17c3.944,0,7.307-1.391,10.088-4.17
		c2.779-2.78,4.17-6.143,4.17-10.087h3.564c0,4.919-1.741,9.12-5.222,12.601c-3.481,3.481-7.682,5.222-12.601,5.222
		s-9.119-1.74-12.601-5.222c-3.481-3.481-5.222-7.682-5.222-12.601V256h3.564V288.08z"/>
</g>
<g>
</g>
<g>
</g>
<g>
</g>
<g>
</g>
<g>
</g>
<g>
</g>
<g>
</g>
</svg>
