<?xml version="1.0" encoding="utf-8"?>
<!-- Generator: Adobe Illustrator 17.0.0, SVG Export Plug-In . SVG Version: 6.00 Build 0)  -->
<!DOCTYPE svg PUBLIC "-//W3C//DTD SVG 1.1//EN" "http://www.w3.org/Graphics/SVG/1.1/DTD/svg11.dtd">
<svg version="1.1" xmlns="http://www.w3.org/2000/svg" xmlns:xlink="http://www.w3.org/1999/xlink" x="0px" y="0px"
	 width="841.89px" height="595.28px" viewBox="0 0 841.89 595.28" enable-background="new 0 0 841.89 595.28" xml:space="preserve">
<g id="Livello_1">
	<polygon fill="none" stroke="#FFFFFF" stroke-width="2" stroke-miterlimit="10" points="418.667,142.333 556.333,142.667 
		556.333,347 418.5,347 	"/>
	<line fill="none" stroke="#FFFFFF" stroke-width="2" stroke-miterlimit="10" x1="510" y1="335.5" x2="548.5" y2="335.5"/>
	<line fill="none" stroke="#FFFFFF" stroke-width="2" stroke-miterlimit="10" x1="430.5" y1="158.5" x2="545" y2="158.5"/>
	<line fill="none" stroke="#FFFFFF" stroke-width="2" stroke-miterlimit="10" x1="429.5" y1="164" x2="520" y2="164"/>
	<line fill="none" stroke="#FFFFFF" stroke-width="2" stroke-miterlimit="10" x1="430.5" y1="170.5" x2="467" y2="170.5"/>
	<line fill="none" stroke="#FFFFFF" stroke-width="2" stroke-miterlimit="10" x1="430" y1="184" x2="539" y2="184"/>
	<line fill="none" stroke="#FFFFFF" stroke-width="2" stroke-miterlimit="10" x1="429.5" y1="191.5" x2="536.5" y2="191.5"/>
	<line fill="none" stroke="#FFFFFF" stroke-width="2" stroke-miterlimit="10" x1="428.5" y1="206" x2="519" y2="206"/>
	<line fill="none" stroke="#FFFFFF" stroke-width="2" stroke-miterlimit="10" x1="429.5" y1="199" x2="520" y2="199"/>
	<line fill="none" stroke="#FFFFFF" stroke-width="2.2348" stroke-miterlimit="10" x1="428.5" y1="212.5" x2="541.5" y2="212.5"/>
	<line fill="none" stroke="#FFFFFF" stroke-width="2.0329" stroke-miterlimit="10" x1="429.5" y1="218.5" x2="523" y2="218.5"/>
	<line fill="none" stroke="#FFFFFF" stroke-width="2.0329" stroke-miterlimit="10" x1="428.5" y1="224.5" x2="522" y2="224.5"/>
	<line fill="none" stroke="#FFFFFF" stroke-width="2.0329" stroke-miterlimit="10" x1="427.5" y1="231.5" x2="521" y2="231.5"/>
	<line fill="none" stroke="#FFFFFF" stroke-width="2.0329" stroke-miterlimit="10" x1="426.5" y1="260.5" x2="520" y2="260.5"/>
	<line fill="none" stroke="#FFFFFF" stroke-width="2.0329" stroke-miterlimit="10" x1="427.5" y1="242.5" x2="521" y2="242.5"/>
	<line fill="none" stroke="#FFFFFF" stroke-width="2.0329" stroke-miterlimit="10" x1="428.5" y1="237.5" x2="522" y2="237.5"/>
	<line fill="none" stroke="#FFFFFF" stroke-width="2.0329" stroke-miterlimit="10" x1="426.5" y1="267.5" x2="520" y2="267.5"/>
	<line fill="none" stroke="#FFFFFF" stroke-width="2.21" stroke-miterlimit="10" x1="426.5" y1="275.5" x2="537" y2="275.5"/>
	<line fill="none" stroke="#FFFFFF" stroke-width="2.3505" stroke-miterlimit="10" x1="425.5" y1="287.5" x2="550.5" y2="287.5"/>
	<line fill="none" stroke="#FFFFFF" stroke-width="1.4103" stroke-miterlimit="10" x1="425.5" y1="300.5" x2="470.5" y2="300.5"/>
	<line fill="none" stroke="#FFFFFF" stroke-width="2.0329" stroke-miterlimit="10" x1="425.5" y1="318.5" x2="519" y2="318.5"/>
	<line fill="none" stroke="#FFFFFF" stroke-width="2.0329" stroke-miterlimit="10" x1="425.5" y1="310.5" x2="519" y2="310.5"/>
</g>
<g id="Livello_2">
	<polygon fill="none" stroke="#FFFFFF" stroke-width="3.6457" stroke-miterlimit="10" points="568.077,140.182 593.217,164.517 
		401.674,349.057 381.107,322.858 	"/>
	<polygon fill="none" stroke="#FFFFFF" stroke-width="3.7127" stroke-miterlimit="10" points="598.412,331.85 574.249,358.037 
		381.703,167.524 407.876,145.946 	"/>
	<g>
	</g>
	<g>
	</g>
	<g>
	</g>
	<g>
	</g>
	<g>
	</g>
	<g>
	</g>
</g>
</svg>
