<?xml version="1.0" encoding="utf-8"?>
<!-- Generator: Adobe Illustrator 22.1.0, SVG Export Plug-In . SVG Version: 6.00 Build 0)  -->
<svg version="1.1" id="Layer_1" xmlns="http://www.w3.org/2000/svg" xmlns:xlink="http://www.w3.org/1999/xlink" x="0px" y="0px"
	 viewBox="0 0 2903 1617" style="enable-background:new 0 0 2903 1617;" xml:space="preserve">
<style type="text/css">
	.st0{opacity:0.71;fill:#FFFFFF;}
	.st1{opacity:0.26;fill:#FFFFFF;}
</style>
<g>
	<g>
		<g>
			<circle class="st0" cx="1442.4" cy="660.2" r="12.9"/>
			<circle class="st0" cx="1278.9" cy="924" r="10.5"/>
			<circle class="st1" cx="1870.1" cy="560.3" r="12.9"/>
			<circle class="st0" cx="1978.8" cy="1797" r="10.8"/>
			<circle class="st0" cx="1778.9" cy="942" r="7.6"/>
			<circle class="st0" cx="1478.4" cy="-337.7" r="12.9"/>
			<circle class="st0" cx="1496.9" cy="1278.4" r="10"/>
			<circle class="st0" cx="2352" cy="1078.8" r="9.7"/>
			<circle class="st0" cx="1217.3" cy="1615.1" r="12.9"/>
			<circle class="st0" cx="2188.9" cy="1343.8" r="10"/>
		</g>
		<polygon class="st0" points="-159.3,1289.1 -158.8,1286.8 2590.1,1942.1 2589.6,1944.3 		"/>
		<polygon class="st0" points="-204.9,1480.3 -204.4,1478.1 2544.5,2133.3 2544,2135.5 		"/>
		<polygon class="st0" points="-113.8,1098.1 -113.3,1095.9 2635.6,1751.1 2635.1,1753.3 		"/>
		<polygon class="st0" points="-68.3,907.1 -67.8,904.9 2681.2,1560.1 2680.6,1562.4 		"/>
		<polygon class="st0" points="-22.8,716.1 -22.2,713.9 2726.7,1369.1 2726.2,1371.4 		"/>
		<polygon class="st0" points="22.8,525.1 23.3,522.9 2772.2,1178.1 2771.7,1180.4 		"/>
		<polygon class="st0" points="68,335.4 68.6,333.1 2818.2,985.4 2817.7,987.7 		"/>
		<polygon class="st0" points="113.8,143.2 114.3,140.9 2863.3,796.2 2862.7,798.4 		"/>
		<polygon class="st0" points="159.3,-47.8 159.9,-50.1 2908.8,605.2 2908.3,607.4 		"/>
		<polygon class="st0" points="204.9,-238.8 205.4,-241 2954.3,414.2 2953.8,416.4 		"/>
		<polygon class="st0" points="250.4,-429.8 250.9,-432 2999.8,223.2 2999.3,225.4 		"/>
		<polygon class="st0" points="295.9,-620.8 296.4,-623 3045.4,32.2 3044.8,34.5 		"/>
		<polygon class="st0" points="341.4,-811.8 342,-814 3090.9,-158.8 3090.4,-156.5 		"/>
		
			<rect x="-925.6" y="431.7" transform="matrix(0.2319 -0.9727 0.9727 0.2319 -46.7384 806.5684)" class="st0" width="2825.9" height="2.3"/>
		
			<rect x="-1116.8" y="386.1" transform="matrix(0.2319 -0.9727 0.9727 0.2319 -149.2835 585.5466)" class="st0" width="2825.9" height="2.3"/>
		
			<rect x="-734.6" y="477.2" transform="matrix(0.2319 -0.9727 0.9727 0.2319 55.6787 1027.3174)" class="st0" width="2825.9" height="2.3"/>
		
			<rect x="-543.7" y="522.8" transform="matrix(0.2319 -0.9727 0.9727 0.2319 158.0974 1248.0697)" class="st0" width="2825.9" height="2.3"/>
		
			<rect x="-352.7" y="568.3" transform="matrix(0.2319 -0.9727 0.9727 0.2319 260.514 1468.8201)" class="st0" width="2825.9" height="2.3"/>
		
			<rect x="-161.7" y="613.8" transform="matrix(0.2319 -0.9727 0.9727 0.2319 362.9311 1689.5691)" class="st0" width="2825.9" height="2.3"/>
		
			<rect x="29.3" y="659.3" transform="matrix(0.2319 -0.9727 0.9727 0.2319 465.356 1910.321)" class="st0" width="2825.9" height="2.3"/>
		
			<rect x="220.7" y="705" transform="matrix(0.2319 -0.9727 0.9727 0.2319 568.0153 2131.5803)" class="st0" width="2825.9" height="2.3"/>
		
			<rect x="411.3" y="750.4" transform="matrix(0.2319 -0.9727 0.9727 0.2319 670.1982 2351.824)" class="st0" width="2825.9" height="2.3"/>
		<polygon class="st0" points="1686.9,2171.5 2342.1,-577.4 2344.4,-576.9 1689.1,2172 		"/>
		<polygon class="st0" points="1877.5,2216.8 2532.7,-532.1 2535,-531.6 1879.7,2217.3 		"/>
		<polygon class="st0" points="2068.5,2262.3 2723.7,-486.6 2726,-486.1 2070.7,2262.9 		"/>
		<polygon class="st0" points="2259.4,2307.8 2914.7,-441.1 2916.9,-440.5 2261.7,2308.4 		"/>
		<polygon class="st0" points="1326.2,2337.7 -162.2,-64.5 -160.2,-65.7 1328.2,2336.5 		"/>
		<polygon class="st0" points="1227.3,2399.3 -261.1,-2.9 -259.1,-4.2 1229.3,2398 		"/>
		<polygon class="st0" points="1493.1,2234.3 4.7,-167.9 6.7,-169.1 1495.1,2233.1 		"/>
		<polygon class="st0" points="1688.7,2113.4 200.3,-288.8 202.2,-290 1690.7,2112.2 		"/>
		<polygon class="st0" points="1802.2,2041.7 320.5,-364.6 322.5,-365.8 1804.2,2040.5 		"/>
		<polygon class="st0" points="2175.1,1853.7 694.5,-553.4 696.5,-554.6 2177.1,1852.5 		"/>
		<polygon class="st0" points="2056.7,1925.7 575.6,-481.1 577.6,-482.3 2058.6,1924.4 		"/>
		<polygon class="st0" points="1938.2,1997.3 456.2,-408.8 458.1,-410 1940.2,1996.1 		"/>
		<polygon class="st0" points="2283.2,1756 794.8,-646.2 796.7,-647.4 2285.2,1754.8 		"/>
		<polygon class="st0" points="2392,1676.7 911.5,-730.4 913.5,-731.6 2393.9,1675.5 		"/>
		<polygon class="st0" points="2510.3,1604.1 1030.2,-803.2 1032.2,-804.4 2512.3,1602.9 		"/>
		<polygon class="st0" points="2627.8,1530 1147.4,-877.2 1149.4,-878.4 2629.8,1528.8 		"/>
		<polygon class="st0" points="2728.9,1429.7 1248.6,-977.5 1250.5,-978.7 2730.9,1428.5 		"/>
		<polygon class="st0" points="2872,1388 1383.6,-1014.2 1385.6,-1015.5 2874,1386.7 		"/>
		<polygon class="st0" points="2985.6,1307 1497.2,-1095.2 1499.2,-1096.4 2987.6,1305.8 		"/>
		<polygon class="st0" points="3162.1,1200.2 1673.7,-1202 1675.7,-1203.2 3164.1,1199 		"/>
		
			<rect x="714.8" y="1477.9" transform="matrix(0.8516 -0.5241 0.5241 0.8516 -483.0414 1251.5841)" class="st0" width="2508.9" height="2.3"/>
		
			<rect x="568.8" y="1240.6" transform="matrix(0.8516 -0.5241 0.5241 0.8516 -380.31 1139.8707)" class="st0" width="2508.9" height="2.3"/>
		
			<rect x="423.4" y="1004" transform="matrix(0.8516 -0.5241 0.5241 0.8516 -277.9284 1028.5409)" class="st0" width="2508.9" height="2.3"/>
		
			<rect x="277.7" y="767.2" transform="matrix(0.8516 -0.5241 0.5241 0.8516 -175.403 917.0645)" class="st0" width="2508.9" height="2.3"/>
		
			<rect x="132.2" y="530.6" transform="matrix(0.8516 -0.5241 0.5241 0.8516 -72.9735 805.6727)" class="st0" width="2508.9" height="2.3"/>
		
			<rect x="-13" y="294.5" transform="matrix(0.8516 -0.5241 0.5241 0.8516 29.2192 694.5473)" class="st0" width="2508.9" height="2.3"/>
		
			<rect x="-85.7" y="176.3" transform="matrix(0.8516 -0.5241 0.5241 0.8516 80.4098 638.8834)" class="st0" width="2508.9" height="2.3"/>
		
			<rect x="-231.6" y="-60.8" transform="matrix(0.8516 -0.5241 0.5241 0.8516 183.0462 527.276)" class="st0" width="2508.9" height="2.3"/>
		
			<rect x="-304.8" y="-179.9" transform="matrix(0.8516 -0.5241 0.5241 0.8516 234.6046 471.2116)" class="st0" width="2508.9" height="2.3"/>
	</g>
</g>
</svg>
